# xmcd
# Track frame offsets:
# 150
# 13877
# 26900
# 43251
# 56686
# 70699
# 85364
# 102690
# 113936
# 128899
# 146957
# 164778
# 181018
# 199523
# 216651
#
# Disc length: 3098 seconds
# Revision: 0
# Processed by: cddbd v1.5.1PL0 Copyright (c) Steve Scherf et al.
# Submitted via: VisiTrax 2.9.10.228 - For more info visit www.synapsa.com
#
DISCID=f00c180f
DTITLE=Black, Clint - CB90008
DYEAR=1900
DGENRE=Karaoke
TTITLE0=Better Man, A
TTITLE1=Killin' Time
TTITLE2=Nobody's Home
TTITLE3=Walkin' Away
TTITLE4=Nothing's News
TTITLE5=Put Yourself In My Shoes
TTITLE6=Loving Blind
TTITLE7=One More Payment
TTITLE8=Where Are You Now
TTITLE9=We Tell Ourselves
TTITLE10=Burn One Down
TTITLE11=When My Ship Comes In
TTITLE12=Bad Goodbye, A
TTITLE13=No Time To Kill
TTITLE14=State Of Mind
EXTD=
EXTT0=
EXTT1=
EXTT2=
EXTT3=
EXTT4=
EXTT5=
EXTT6=
EXTT7=
EXTT8=
EXTT9=
EXTT10=
EXTT11=
EXTT12=
EXTT13=
EXTT14=
PLAYORDER=
